PathFileType	4	(X/Y/Z)	D:\Long Term Storage\D'Arcy Smith\Coord13.trc
DataRate	CameraRate	NumFrames	NumMarkers	Units	OrigDataRate	OrigDataStartFrame	OrigNumFrames
120.00	120.00	      85	4	mm	120.00	3597	      4795
Frame#	Time	M1			M2			M3			M4			
		X1	Y1	Z1	X2	Y2	Z2	X3	Y3	Z3	X4	Y4	Z4	

3597	29.967	1073.91577	310.66339	250.37761	1632.84351	302.78372	657.66620							
3598	29.975	1073.53833	308.24945	254.00494	1633.49268	299.50381	650.46783							
3599	29.983	1073.30981	305.55301	257.64526	1633.44336	295.83984	642.97369							
3600	29.992	1073.22241	302.90707	261.72324	1633.89551	292.48523	635.13098							
3601	30.000	1073.06189	300.04337	265.93427	1634.39771	289.18677	626.97125							
3602	30.008	1072.99500	297.03857	270.38629	1634.59204	285.92041	619.16266							
3603	30.017	1072.58960	293.66873	275.25153	1635.04297	282.93906	610.25128							
3604	30.025	1072.57263	290.42462	280.33649	1635.40247	279.94366	600.92181							
3605	30.033	1072.21887	287.16736	285.75513	1635.70264	277.09351	591.33710							
3606	30.042	1071.94189	283.76141	291.55240	1635.78076	274.39655	581.23712							
3607	30.050	1071.48694	280.38556	297.79834	1635.98914	272.21365	571.12378							
3608	30.058	1070.99500	277.00757	304.43500	1636.35535	270.15842	560.46027							
3609	30.067	1070.06360	273.57156	311.39050	1636.02161	268.07983	549.49225							
3610	30.075	1069.85596	270.70200	319.08624	1635.89136	266.52756	538.13782							
3611	30.083	1069.24011	267.85062	326.35745	1635.67908	265.25397	526.73138							
3612	30.092	1068.15759	264.98953	335.64142	1635.43286	264.46640	515.02655							
3613	30.100	1067.36951	262.23453	344.17688	1635.12500	263.94968	502.93527							
3614	30.108	1066.51257	259.81781	352.60898	1634.69263	263.75995	490.70761							
3615	30.117	1065.89624	256.81128	362.83963	1633.87463	263.54456	478.63660							
3616	30.125	1064.81506	254.69322	372.06973	1633.77991	264.40552	465.21246							
3617	30.133	1063.73547	252.69089	381.73859	1633.33008	265.28238	452.64890							
3618	30.142	1062.73584	251.47089	391.39063	1633.06824	266.72995	439.82620							
3619	30.150	1061.55090	249.63417	401.26871	1632.22864	268.17535	427.14563							
3620	30.158	1060.41248	248.71271	411.32111	1631.62537	270.15683	414.46957							
3621	30.167	1059.18994	247.85716	421.47589	1630.93970	272.51443	401.89389							
3622	30.175	1057.95703	247.57550	431.48764	1630.09277	275.24118	389.36368							
3623	30.183	1056.80701	247.41982	441.41974	1629.33582	278.39935	377.03397							
3624	30.192	1055.65051	247.64790	451.24310	1628.57800	281.89709	364.81311							
3625	30.200	1054.27563	248.00256	461.08319	1627.72656	285.67722	352.86963							
3626	30.208	1053.01965	248.65233	470.49268	1626.93079	289.83264	341.18536							
3627	30.217	1051.56177	249.40874	479.74838	1625.91284	294.23621	330.58575							
3628	30.225	1050.41748	250.20467	488.96231	1625.34155	298.74634	319.56491							
3629	30.233	1049.26746	251.17125	497.57935	1625.15173	303.62048	309.01254							
3630	30.242	1047.93481	252.95705	506.10678	1624.63538	308.62683	299.01358							
3631	30.250	1046.61279	254.29172	513.70056	1624.44128	313.49094	289.24432							
3632	30.258	1045.33093	255.63853	521.69934	1623.89355	318.98566	280.00198							
3633	30.267	1044.23059	257.13766	529.10101	1623.56470	324.17361	271.26254							
3634	30.275	1042.68408	258.94925	536.24225	1623.32397	329.44012	263.20099							
3635	30.283	1041.33313	260.72226	542.88275	1623.17114	334.49445	255.62349							
3636	30.292	1040.19214	262.94299	549.30188	1623.16382	339.44083	248.81714							
3637	30.300	1038.98962	264.81555	555.16095	1623.31677	344.16602	242.20073							
3638	30.308	1037.81213	266.77109	560.46948	1623.52368	348.66797	236.43765							
3639	30.317	1036.58008	268.52045	565.40955	1623.67029	352.84451	231.28909							
3640	30.325	1035.48743	270.35867	569.86694	1624.19189	356.73541	226.62306							
3641	30.333	1034.40564	272.07938	573.89935	1624.54004	360.13837	222.62823							
3642	30.342	1033.18860	273.62405	577.43744	1625.35779	363.30624	219.09428							
3643	30.350	1032.40295	275.02347	580.38373	1626.13538	366.28085	216.17998							
3644	30.358	1031.48474	276.20181	583.03290	1626.79346	368.44955	214.02484							
3645	30.367	1030.40637	277.32440	585.07391	1627.88513	370.51852	212.21255							
3646	30.375	1029.46533	278.31543	586.70435	1628.87744	371.82361	210.99510							
3647	30.383	1028.62048	279.10626	587.76508	1630.17041	372.89832	210.51117							
3648	30.392	1027.45520	279.55215	588.21997	1631.56799	373.50000	210.40106							
3649	30.400	1026.94897	280.09366	588.68262	1633.00415	373.69144	210.65048							
3650	30.408	1026.18542	280.17929	588.49933	1634.35181	373.32382	211.36263							
3651	30.417	1025.45239	280.14731	587.84729	1635.62976	372.43024	212.78166							
3652	30.425	1024.83643	279.85876	586.91406	1637.12451	371.27713	214.55150							
3653	30.433	1024.22009	279.37524	585.49786	1638.26099	369.75751	216.58911							
3654	30.442	1023.52875	278.72009	583.71985	1639.52844	367.83609	219.22009							
3655	30.450	1023.22919	277.68781	581.39752	1640.85132	365.75494	222.25037							
3656	30.458	1022.84918	276.67105	578.96722	1642.04651	363.24310	225.50665							
3657	30.467	1022.49451	275.52478	576.04504	1643.40283	360.64172	229.26202							
3658	30.475	1022.08997	274.09158	572.85645	1644.52747	357.52042	233.34529							
3659	30.483	1021.95587	272.51044	569.02917	1645.75476	354.56244	237.85884							
3660	30.492	1022.00433	270.88550	565.33893	1646.86841	351.20981	242.74852							
3661	30.500	1021.96381	269.39551	561.29810	1647.89453	347.65918	248.02362							
3662	30.508	1021.95630	267.73883	556.98352	1648.96204	344.09442	253.53812							
3663	30.517	1021.96576	266.19827	552.26501	1649.79602	340.34750	259.39963							
3664	30.525	1022.04901	264.68732	547.36884	1650.56836	336.57559	265.65820							
3665	30.533	1022.23383	263.23199	542.47589	1651.44434	332.71490	272.13889							
3666	30.542	1022.36450	261.72433	537.11469	1652.15295	328.61844	278.82581							
3667	30.550	1022.64539	260.31015	531.67102	1652.84937	324.41431	286.03394							
3668	30.558	1022.99811	258.93481	526.11707	1653.38782	320.11438	293.16766							
3669	30.567	1023.31848	257.73917	520.33289	1653.87109	315.77170	300.73029							
3670	30.575	1023.96167	256.70801	514.45337	1654.49707	311.44052	308.72092							
3671	30.583	1024.43811	255.55190	508.69568	1654.43445	307.18924	316.85263							
3672	30.592	1025.28589	254.07652	502.88116	1654.76050	302.73288	325.27646							
3673	30.600	1026.05957	253.34430	496.70218	1655.05640	298.17886	333.92300							
3674	30.608	1026.64709	252.80237	490.31360	1655.57373	293.73090	342.03067							
3675	30.617	1027.41931	252.28838	483.98712	1655.83398	289.13409	351.48508							
3676	30.625	1028.48022	252.12167	477.48691	1655.92920	284.65564	361.33862							
3677	30.633	1029.21301	252.09160	470.78174	1655.90125	280.32318	371.71222							
3678	30.642	1030.50549	252.08131	464.06625	1655.07007	276.23383	382.56131							
3679	30.650	1031.61157	252.29326	457.22275	1655.46082	272.18976	393.95865							
3680	30.658	1032.68042	252.61801	450.15811	1654.97607	268.58398	405.82147							
3681	30.667	1034.00989	253.17050	443.11337	1654.64917	265.52429	418.16205							
